<svg xmlns="http://www.w3.org/2000/svg" width="37" height="37" viewBox="0 0 37 37">
  <g id="Group_3904" data-name="Group 3904" transform="translate(511 -176)">
    <circle id="Ellipse_62" data-name="Ellipse 62" cx="18.5" cy="18.5" r="18.5" transform="translate(-511 176)" fill="#f9f8ef"/>
    <path id="Path_2088" data-name="Path 2088" d="M54.893,27.826,47.64,21.218a.825.825,0,0,0-1.117,0l-7.252,6.608a.829.829,0,0,0,.558,1.442h1.158v6.621a.475.475,0,0,0,.475.475h3.975a.475.475,0,0,0,.475-.475v-4.02H48.25v4.02a.475.475,0,0,0,.475.475H52.7a.475.475,0,0,0,.475-.475V29.267h1.159a.829.829,0,0,0,.558-1.442Z" transform="translate(-539.219 165.643)" fill="#bd6436"/>
  </g>
</svg>
